<?xml version="1.0" encoding="UTF-8"?>
<svg version="1.1" xmlns="http://www.w3.org/2000/svg" width="2048" height="2048">
<path d="M0 0 C2.66278657 0.26629791 5.32656352 0.52043363 7.99066162 0.77325439 C85.2191298 8.18686178 160.82695598 24.10663413 234.53216553 48.25323486 C235.21708069 48.47753174 235.90199585 48.70182861 236.60766602 48.93292236 C276.64086372 62.07868618 315.41573781 78.31883971 353.53216553 96.25323486 C354.59064697 96.74823486 355.64912842 97.24323486 356.73968506 97.75323486 C370.7139486 104.29827795 384.36520002 111.25529966 397.84368896 118.76641846 C400.52312907 120.2482374 403.21577902 121.70229075 405.91497803 123.14776611 C441.24367953 142.0971733 474.85570964 164.07017658 507.53216553 187.25323486 C508.32719482 187.81719971 509.12222412 188.38116455 509.94134521 188.96221924 C519.42993673 195.71122981 528.73598849 202.63433986 537.83343506 209.90167236 C540.18641581 211.77377662 542.55641981 213.62378196 544.92572021 215.47515869 C554.59137473 223.03483704 564.05916783 230.80142959 573.34735107 238.82037354 C576.79250121 241.78819208 580.2848856 244.67269665 583.84466553 247.50323486 C590.39197383 252.81081615 596.42383782 258.66326066 602.52825928 264.46807861 C605.52110744 267.31097196 608.55768562 270.08881348 611.65716553 272.81573486 C616.69239147 277.29053326 621.39309296 282.08403617 626.12835693 286.87091064 C629.8561612 290.62537609 633.65397257 294.19260891 637.70648193 297.59747314 C639.55869975 299.27729947 641.13688976 301.03634144 642.75091553 302.94464111 C646.48087892 307.25926146 650.46230068 311.26133677 654.53216553 315.25323486 C659.17709683 319.8091828 663.64201756 324.42906765 667.88861084 329.36016846 C670.32255876 332.16361947 672.86747336 334.85846833 675.40716553 337.56573486 C679.94565076 342.43909036 684.2256535 347.45627464 688.39544678 352.65167236 C690.49099046 355.20310215 692.67179707 357.6365026 694.90716553 360.06573486 C698.88900139 364.44024312 702.54958636 368.99852561 706.17108154 373.66973877 C709.13262036 377.48638054 712.15176382 381.24535204 715.22454834 384.97296143 C722.42008564 393.71256821 729.17810882 402.73094973 735.82220459 411.89483643 C737.45776093 414.15061515 739.09976306 416.40156071 740.74310303 418.65167236 C752.77625407 435.17103752 764.65597814 451.80506717 775.30169678 469.25909424 C776.61734977 471.39128741 777.96149153 473.50323804 779.31341553 475.61260986 C787.42847507 488.27955866 795.07807698 501.18728534 802.53216553 514.25323486 C803.12948486 515.29544189 803.7268042 516.33764893 804.34222412 517.41143799 C836.81955716 574.32707429 862.83018487 634.21877355 883.84521484 696.22814941 C884.48438773 698.11238904 885.12797224 699.99513058 885.77191162 701.87774658 C910.34703531 774.11752057 925.54806957 850.48061231 932.11029053 926.44708252 C932.3815642 929.58709108 932.67288267 932.72399072 932.98529053 935.86016846 C938.58263731 992.60614964 938.39334574 1052.22705653 932.75354004 1108.9597168 C932.45217099 1112.08200653 932.19020366 1115.20720195 931.92625427 1118.33283997 C928.49539441 1158.57615712 922.32065403 1198.83164214 913.53216553 1238.25323486 C913.36154602 1239.02512146 913.19092651 1239.79700806 913.01513672 1240.59228516 C900.27443251 1298.15864864 883.1434997 1354.77522475 860.53216553 1409.25323486 C860.03265381 1410.45883057 859.53314209 1411.66442627 859.01849365 1412.90655518 C843.00948146 1451.32610265 825.21437683 1489.58309003 804.13031006 1525.5100708 C802.37244521 1528.52738968 800.65174941 1531.56418369 798.93450928 1534.60479736 C791.1983647 1548.25504075 783.00892302 1561.49539111 774.3168335 1574.55548096 C772.03747733 1578.00101934 769.80488988 1581.47550684 767.57196045 1584.95123291 C753.29810632 1607.12866557 737.75016206 1628.4616056 721.53216553 1649.25323486 C721.11434814 1649.79190186 720.69653076 1650.33056885 720.26605225 1650.88555908 C706.42175084 1668.73290671 692.01858045 1686.17681102 676.74700928 1702.82354736 C674.89209735 1704.85838901 673.07787754 1706.91644733 671.28216553 1709.00323486 C662.89153775 1718.63473013 654.03602817 1727.84639992 644.94696045 1736.81695557 C641.53597858 1740.19840055 638.35240207 1743.6983907 635.24920654 1747.36627197 C633.54350673 1749.24077132 631.76718201 1750.84451847 629.83294678 1752.47979736 C625.520635 1756.20682802 621.52149642 1760.18598735 617.53216553 1764.25323486 C612.97621759 1768.89816616 608.35633274 1773.3630869 603.42523193 1777.60968018 C600.62178092 1780.0436281 597.92693206 1782.5885427 595.21966553 1785.12823486 C590.35110802 1789.6622518 585.33884388 1793.93816267 580.14935303 1798.10479736 C577.51374939 1800.26835258 574.98793178 1802.51713047 572.46966553 1804.81573486 C568.5369942 1808.39089061 564.49981088 1811.76214752 560.32513428 1815.05010986 C558.29479217 1816.65166643 556.27811683 1818.2644127 554.27044678 1819.89385986 C543.89878315 1828.29460661 533.24797994 1836.2984247 522.53216553 1844.25323486 C521.71103271 1844.86521729 520.8898999 1845.47719971 520.04388428 1846.10772705 C509.36519703 1854.06564829 498.57467334 1861.80829915 487.53216553 1869.25323486 C486.94080811 1869.65429443 486.34945068 1870.055354 485.74017334 1870.46856689 C470.03374317 1881.11500308 454.03228213 1891.37950256 437.67230225 1900.99395752 C436.10699176 1901.91500149 434.54380871 1902.83966369 432.98187256 1903.76641846 C371.6579883 1940.14426613 307.01137507 1969.68615405 239.51037598 1992.58190918 C237.59112486 1993.23322642 235.67319506 1993.88843318 233.75531006 1994.54376221 C160.01965497 2019.58440239 82.42855704 2035.2439913 4.90368652 2042.04034424 C2.55935168 2042.25079437 0.21695852 2042.47653493 -2.12554932 2042.70635986 C-59.07554198 2048.21013199 -119.01936482 2048.30497472 -175.94805908 2042.50646973 C-178.62877277 2042.23706073 -181.31068817 2041.98379412 -183.9932251 2041.73321533 C-277.55644485 2032.93042373 -370.52195971 2012.0733079 -471.46783447 1972.25323486 C-472.70271042 1971.74961148 -473.93774071 1971.24636638 -475.1729126 1970.74346924 C-515.36787306 1954.35385886 -555.26333468 1935.83589597 -592.72467041 1913.85137939 C-595.74198929 1912.09351455 -598.7787833 1910.37281875 -601.81939697 1908.65557861 C-615.46964036 1900.91943404 -628.70999072 1892.72999236 -641.77008057 1884.03790283 C-645.21561895 1881.75854667 -648.69010645 1879.52595921 -652.16583252 1877.29302979 C-674.34326518 1863.01917566 -695.67620521 1847.47123139 -716.46783447 1831.25323486 C-717.27583496 1830.62650879 -717.27583496 1830.62650879 -718.10015869 1829.98712158 C-735.94750632 1816.14282017 -753.39141063 1801.73964978 -770.03814697 1786.46807861 C-772.07298862 1784.61316669 -774.13104694 1782.79894688 -776.21783447 1781.00323486 C-785.84932974 1772.61260708 -795.06099953 1763.7570975 -804.03155518 1754.66802979 C-807.41300016 1751.25704792 -810.91299031 1748.0734714 -814.58087158 1744.97027588 C-816.45537092 1743.26457606 -818.05911808 1741.48825135 -819.69439697 1739.55401611 C-823.42142763 1735.24170434 -827.40058696 1731.24256575 -831.46783447 1727.25323486 C-836.11276577 1722.69728692 -840.57768651 1718.07740207 -844.82427979 1713.14630127 C-847.25822771 1710.34285026 -849.80314231 1707.6480014 -852.34283447 1704.94073486 C-856.88131971 1700.06737937 -861.16132245 1695.05019509 -865.33111572 1689.85479736 C-867.42665941 1687.30336757 -869.60746602 1684.86996713 -871.84283447 1682.44073486 C-875.82045133 1678.07086168 -879.47660041 1673.5171395 -883.09576416 1668.85211182 C-886.69249387 1664.21929994 -890.37680936 1659.66571986 -894.09283447 1655.12823486 C-899.39481686 1648.62952812 -904.52852972 1642.03332275 -909.46783447 1635.25323486 C-909.94688232 1634.59629639 -910.42593018 1633.93935791 -910.91949463 1633.26251221 C-922.41410378 1617.47219114 -933.76414738 1601.59263864 -944.46783447 1585.25323486 C-945.10688721 1584.28015381 -945.10688721 1584.28015381 -945.7588501 1583.28741455 C-967.25286428 1550.50506255 -987.1430565 1516.62946524 -1004.39703369 1481.41387939 C-1005.63199942 1478.92198549 -1006.8946182 1476.44505201 -1008.15924072 1473.96807861 C-1025.70181454 1439.49978712 -1040.55449914 1403.6992442 -1053.46783447 1367.25323486 C-1053.7292926 1366.51611267 -1053.99075073 1365.77899048 -1054.26013184 1365.01953125 C-1083.05936884 1283.67402325 -1102.01018179 1198.91264377 -1111.46783447 1085.25323486 C-1111.5130209 1084.5749721 -1111.55820732 1083.89670933 -1111.60476303 1083.19789314 C-1112.3929076 1071.11093484 -1112.64572402 1059.06306593 -1112.67095947 1046.95245361 C-1112.67520054 1045.53897109 -1112.67520054 1045.53897109 -1112.67952728 1044.09693336 C-1112.69440891 1039.08482222 -1112.70370112 1034.0727389 -1112.70806885 1029.06060791 C-1112.71239992 1025.02893761 -1112.72609634 1020.99748781 -1112.74908447 1016.96588135 C-1112.95273482 980.45883517 -1111.49539373 944.09564018 -1107.21783447 907.81573486 C-1107.11589783 906.92517395 -1107.01396118 906.03461304 -1106.90893555 905.11706543 C-1098.81727334 834.63551709 -1083.54907449 765.65412665 -1061.46783447 698.25323486 C-1061.2435376 697.5683197 -1061.01924072 696.88340454 -1060.78814697 696.17773438 C-1045.37965386 649.25377774 -1026.02680141 603.67602698 -1003.67584229 559.64581299 C-1002.5900771 557.49534839 -1001.52013748 555.33830402 -1000.46002197 553.17510986 C-978.44761452 508.30850935 -951.3687863 465.95658285 -922.46783447 425.25323486 C-921.65016602 424.09912109 -921.65016602 424.09912109 -920.815979 422.92169189 C-909.12458665 406.45400228 -896.69210233 390.60935395 -883.8916626 374.99298096 C-882.61557143 373.43375159 -881.34596066 371.86922387 -880.07720947 370.30401611 C-871.57802345 359.83289665 -862.79930766 349.62048052 -853.68267822 339.68292236 C-851.8277663 337.64808071 -850.01354649 335.59002239 -848.21783447 333.50323486 C-840.02804031 324.09942416 -831.3990632 315.07962154 -822.52032471 306.32720947 C-819.83419485 303.66645895 -817.28188152 300.95393044 -814.84283447 298.06573486 C-811.6571327 294.33129977 -808.09520625 291.18192564 -804.41314697 287.94464111 C-800.77209628 284.6174741 -797.31090993 281.13397888 -793.84283447 277.62823486 C-789.52942985 273.27657389 -785.22810034 269.00037352 -780.54205322 265.04620361 C-778.25659336 263.07063662 -776.05356295 261.02056217 -773.84649658 258.95831299 C-768.41292764 253.88164802 -762.8720459 249.04712286 -757.06939697 244.38995361 C-754.51796718 242.29440993 -752.08456674 240.11360332 -749.65533447 237.87823486 C-745.28546129 233.90061801 -740.73173911 230.24446892 -736.06671143 226.62530518 C-731.43389954 223.02857547 -726.88031947 219.34425998 -722.34283447 215.62823486 C-715.84412773 210.32625247 -709.24792236 205.19253962 -702.46783447 200.25323486 C-701.48242676 199.53466309 -701.48242676 199.53466309 -700.47711182 198.80157471 C-684.68679075 187.30696556 -668.80723825 175.95692196 -652.46783447 165.25323486 C-651.81911377 164.82719971 -651.17039307 164.40116455 -650.50201416 163.96221924 C-583.64816402 120.12895178 -511.80953758 83.75565227 -436.45892334 56.96160889 C-435.07640785 56.46974834 -433.6943602 55.97657159 -432.31268311 55.48236084 C-351.16290826 26.46500964 -266.96274006 8.64456257 -181.22186279 0.51751709 C-178.64496278 0.27023246 -176.06955912 0.01114363 -173.49420166 -0.25164795 C-116.71940354 -5.94225409 -56.7617156 -5.7016467 0 0 Z " fill="#B12234" transform="translate(1112.4678344726563,2.74676513671875)"/>
<path d="M0 0 C2.66278657 0.26629791 5.32656352 0.52043363 7.99066162 0.77325439 C85.2191298 8.18686178 160.82695598 24.10663413 234.53216553 48.25323486 C235.21708069 48.47753174 235.90199585 48.70182861 236.60766602 48.93292236 C276.64086372 62.07868618 315.41573781 78.31883971 353.53216553 96.25323486 C354.59064697 96.74823486 355.64912842 97.24323486 356.73968506 97.75323486 C370.7139486 104.29827795 384.36520002 111.25529966 397.84368896 118.76641846 C400.52312907 120.2482374 403.21577902 121.70229075 405.91497803 123.14776611 C441.24367953 142.0971733 474.85570964 164.07017658 507.53216553 187.25323486 C508.32719482 187.81719971 509.12222412 188.38116455 509.94134521 188.96221924 C519.42993673 195.71122981 528.73598849 202.63433986 537.83343506 209.90167236 C540.18641581 211.77377662 542.55641981 213.62378196 544.92572021 215.47515869 C554.59137473 223.03483704 564.05916783 230.80142959 573.34735107 238.82037354 C576.79250121 241.78819208 580.2848856 244.67269665 583.84466553 247.50323486 C590.39197383 252.81081615 596.42383782 258.66326066 602.52825928 264.46807861 C605.52110744 267.31097196 608.55768562 270.08881348 611.65716553 272.81573486 C616.69239147 277.29053326 621.39309296 282.08403617 626.12835693 286.87091064 C629.8561612 290.62537609 633.65397257 294.19260891 637.70648193 297.59747314 C639.55869975 299.27729947 641.13688976 301.03634144 642.75091553 302.94464111 C646.48087892 307.25926146 650.46230068 311.26133677 654.53216553 315.25323486 C659.17709683 319.8091828 663.64201756 324.42906765 667.88861084 329.36016846 C670.32255876 332.16361947 672.86747336 334.85846833 675.40716553 337.56573486 C679.94565076 342.43909036 684.2256535 347.45627464 688.39544678 352.65167236 C690.49099046 355.20310215 692.67179707 357.6365026 694.90716553 360.06573486 C698.88900139 364.44024312 702.54958636 368.99852561 706.17108154 373.66973877 C709.13262036 377.48638054 712.15176382 381.24535204 715.22454834 384.97296143 C722.42008564 393.71256821 729.17810882 402.73094973 735.82220459 411.89483643 C737.45776093 414.15061515 739.09976306 416.40156071 740.74310303 418.65167236 C752.77625407 435.17103752 764.65597814 451.80506717 775.30169678 469.25909424 C776.61734977 471.39128741 777.96149153 473.50323804 779.31341553 475.61260986 C787.42847507 488.27955866 795.07807698 501.18728534 802.53216553 514.25323486 C803.12948486 515.29544189 803.7268042 516.33764893 804.34222412 517.41143799 C836.81955716 574.32707429 862.83018487 634.21877355 883.84521484 696.22814941 C884.48438773 698.11238904 885.12797224 699.99513058 885.77191162 701.87774658 C910.34703531 774.11752057 925.54806957 850.48061231 932.11029053 926.44708252 C932.3815642 929.58709108 932.67288267 932.72399072 932.98529053 935.86016846 C938.58263731 992.60614964 938.39334574 1052.22705653 932.75354004 1108.9597168 C932.45217099 1112.08200653 932.19020366 1115.20720195 931.92625427 1118.33283997 C928.49539441 1158.57615712 922.32065403 1198.83164214 913.53216553 1238.25323486 C913.36154602 1239.02512146 913.19092651 1239.79700806 913.01513672 1240.59228516 C900.27443251 1298.15864864 883.1434997 1354.77522475 860.53216553 1409.25323486 C860.03265381 1410.45883057 859.53314209 1411.66442627 859.01849365 1412.90655518 C843.00948146 1451.32610265 825.21437683 1489.58309003 804.13031006 1525.5100708 C802.37244521 1528.52738968 800.65174941 1531.56418369 798.93450928 1534.60479736 C791.1983647 1548.25504075 783.00892302 1561.49539111 774.3168335 1574.55548096 C772.03747733 1578.00101934 769.80488988 1581.47550684 767.57196045 1584.95123291 C753.29810632 1607.12866557 737.75016206 1628.4616056 721.53216553 1649.25323486 C721.11434814 1649.79190186 720.69653076 1650.33056885 720.26605225 1650.88555908 C706.42175084 1668.73290671 692.01858045 1686.17681102 676.74700928 1702.82354736 C674.89209735 1704.85838901 673.07787754 1706.91644733 671.28216553 1709.00323486 C662.89153775 1718.63473013 654.03602817 1727.84639992 644.94696045 1736.81695557 C641.53597858 1740.19840055 638.35240207 1743.6983907 635.24920654 1747.36627197 C633.54350673 1749.24077132 631.76718201 1750.84451847 629.83294678 1752.47979736 C625.520635 1756.20682802 621.52149642 1760.18598735 617.53216553 1764.25323486 C612.97621759 1768.89816616 608.35633274 1773.3630869 603.42523193 1777.60968018 C600.62178092 1780.0436281 597.92693206 1782.5885427 595.21966553 1785.12823486 C590.35110802 1789.6622518 585.33884388 1793.93816267 580.14935303 1798.10479736 C577.51374939 1800.26835258 574.98793178 1802.51713047 572.46966553 1804.81573486 C568.5369942 1808.39089061 564.49981088 1811.76214752 560.32513428 1815.05010986 C558.29479217 1816.65166643 556.27811683 1818.2644127 554.27044678 1819.89385986 C543.89878315 1828.29460661 533.24797994 1836.2984247 522.53216553 1844.25323486 C521.71103271 1844.86521729 520.8898999 1845.47719971 520.04388428 1846.10772705 C509.36519703 1854.06564829 498.57467334 1861.80829915 487.53216553 1869.25323486 C486.94080811 1869.65429443 486.34945068 1870.055354 485.74017334 1870.46856689 C470.03374317 1881.11500308 454.03228213 1891.37950256 437.67230225 1900.99395752 C436.10699176 1901.91500149 434.54380871 1902.83966369 432.98187256 1903.76641846 C371.6579883 1940.14426613 307.01137507 1969.68615405 239.51037598 1992.58190918 C237.59112486 1993.23322642 235.67319506 1993.88843318 233.75531006 1994.54376221 C160.01965497 2019.58440239 82.42855704 2035.2439913 4.90368652 2042.04034424 C2.55935168 2042.25079437 0.21695852 2042.47653493 -2.12554932 2042.70635986 C-59.07554198 2048.21013199 -119.01936482 2048.30497472 -175.94805908 2042.50646973 C-178.62877277 2042.23706073 -181.31068817 2041.98379412 -183.9932251 2041.73321533 C-277.55644485 2032.93042373 -370.52195971 2012.0733079 -471.46783447 1972.25323486 C-472.70271042 1971.74961148 -473.93774071 1971.24636638 -475.1729126 1970.74346924 C-515.36787306 1954.35385886 -555.26333468 1935.83589597 -592.72467041 1913.85137939 C-595.74198929 1912.09351455 -598.7787833 1910.37281875 -601.81939697 1908.65557861 C-615.46964036 1900.91943404 -628.70999072 1892.72999236 -641.77008057 1884.03790283 C-645.21561895 1881.75854667 -648.69010645 1879.52595921 -652.16583252 1877.29302979 C-674.34326518 1863.01917566 -695.67620521 1847.47123139 -716.46783447 1831.25323486 C-717.27583496 1830.62650879 -717.27583496 1830.62650879 -718.10015869 1829.98712158 C-735.94750632 1816.14282017 -753.39141063 1801.73964978 -770.03814697 1786.46807861 C-772.07298862 1784.61316669 -774.13104694 1782.79894688 -776.21783447 1781.00323486 C-785.84932974 1772.61260708 -795.06099953 1763.7570975 -804.03155518 1754.66802979 C-807.41300016 1751.25704792 -810.91299031 1748.0734714 -814.58087158 1744.97027588 C-816.45537092 1743.26457606 -818.05911808 1741.48825135 -819.69439697 1739.55401611 C-823.42142763 1735.24170434 -827.40058696 1731.24256575 -831.46783447 1727.25323486 C-836.11276577 1722.69728692 -840.57768651 1718.07740207 -844.82427979 1713.14630127 C-847.25822771 1710.34285026 -849.80314231 1707.6480014 -852.34283447 1704.94073486 C-856.88131971 1700.06737937 -861.16132245 1695.05019509 -865.33111572 1689.85479736 C-867.42665941 1687.30336757 -869.60746602 1684.86996713 -871.84283447 1682.44073486 C-875.82045133 1678.07086168 -879.47660041 1673.5171395 -883.09576416 1668.85211182 C-886.69249387 1664.21929994 -890.37680936 1659.66571986 -894.09283447 1655.12823486 C-899.39481686 1648.62952812 -904.52852972 1642.03332275 -909.46783447 1635.25323486 C-909.94688232 1634.59629639 -910.42593018 1633.93935791 -910.91949463 1633.26251221 C-922.41410378 1617.47219114 -933.76414738 1601.59263864 -944.46783447 1585.25323486 C-945.10688721 1584.28015381 -945.10688721 1584.28015381 -945.7588501 1583.28741455 C-967.25286428 1550.50506255 -987.1430565 1516.62946524 -1004.39703369 1481.41387939 C-1005.63199942 1478.92198549 -1006.8946182 1476.44505201 -1008.15924072 1473.96807861 C-1025.70181454 1439.49978712 -1040.55449914 1403.6992442 -1053.46783447 1367.25323486 C-1053.7292926 1366.51611267 -1053.99075073 1365.77899048 -1054.26013184 1365.01953125 C-1083.05936884 1283.67402325 -1102.01018179 1198.91264377 -1111.46783447 1085.25323486 C-1111.5130209 1084.5749721 -1111.55820732 1083.89670933 -1111.60476303 1083.19789314 C-1112.3929076 1071.11093484 -1112.64572402 1059.06306593 -1112.67095947 1046.95245361 C-1112.67520054 1045.53897109 -1112.67520054 1045.53897109 -1112.67952728 1044.09693336 C-1112.69440891 1039.08482222 -1112.70370112 1034.0727389 -1112.70806885 1029.06060791 C-1112.71239992 1025.02893761 -1112.72609634 1020.99748781 -1112.74908447 1016.96588135 C-1112.95273482 980.45883517 -1111.49539373 944.09564018 -1107.21783447 907.81573486 C-1107.11589783 906.92517395 -1107.01396118 906.03461304 -1106.90893555 905.11706543 C-1098.81727334 834.63551709 -1083.54907449 765.65412665 -1061.46783447 698.25323486 C-1061.2435376 697.5683197 -1061.01924072 696.88340454 -1060.78814697 696.17773438 C-1045.37965386 649.25377774 -1026.02680141 603.67602698 -1003.67584229 559.64581299 C-1002.5900771 557.49534839 -1001.52013748 555.33830402 -1000.46002197 553.17510986 C-978.44761452 508.30850935 -951.3687863 465.95658285 -922.46783447 425.25323486 C-921.65016602 424.09912109 -921.65016602 424.09912109 -920.815979 422.92169189 C-909.12458665 406.45400228 -896.69210233 390.60935395 -883.8916626 374.99298096 C-882.61557143 373.43375159 -881.34596066 371.86922387 -880.07720947 370.30401611 C-871.57802345 359.83289665 -862.79930766 349.62048052 -853.68267822 339.68292236 C-851.8277663 337.64808071 -850.01354649 335.59002239 -848.21783447 333.50323486 C-840.02804031 324.09942416 -831.3990632 315.07962154 -822.52032471 306.32720947 C-819.83419485 303.66645895 -817.28188152 300.95393044 -814.84283447 298.06573486 C-811.6571327 294.33129977 -808.09520625 291.18192564 -804.41314697 287.94464111 C-800.77209628 284.6174741 -797.31090993 281.13397888 -793.84283447 277.62823486 C-789.52942985 273.27657389 -785.22810034 269.00037352 -780.54205322 265.04620361 C-778.25659336 263.07063662 -776.05356295 261.02056217 -773.84649658 258.95831299 C-768.41292764 253.88164802 -762.8720459 249.04712286 -757.06939697 244.38995361 C-754.51796718 242.29440993 -752.08456674 240.11360332 -749.65533447 237.87823486 C-745.28546129 233.90061801 -740.73173911 230.24446892 -736.06671143 226.62530518 C-731.43389954 223.02857547 -726.88031947 219.34425998 -722.34283447 215.62823486 C-715.84412773 210.32625247 -709.24792236 205.19253962 -702.46783447 200.25323486 C-701.48242676 199.53466309 -701.48242676 199.53466309 -700.47711182 198.80157471 C-684.68679075 187.30696556 -668.80723825 175.95692196 -652.46783447 165.25323486 C-651.81911377 164.82719971 -651.17039307 164.40116455 -650.50201416 163.96221924 C-583.64816402 120.12895178 -511.80953758 83.75565227 -436.45892334 56.96160889 C-435.07640785 56.46974834 -433.6943602 55.97657159 -432.31268311 55.48236084 C-351.16290826 26.46500964 -266.96274006 8.64456257 -181.22186279 0.51751709 C-178.64496278 0.27023246 -176.06955912 0.01114363 -173.49420166 -0.25164795 C-116.71940354 -5.94225409 -56.7617156 -5.7016467 0 0 Z M-155.46783447 204.25323486 C-156.32606812 204.33335815 -157.18430176 204.41348145 -158.06854248 204.49603271 C-212.45617451 209.63217725 -266.07681467 218.45694749 -318.46783447 234.25323486 C-319.5124585 234.56454346 -320.55708252 234.87585205 -321.63336182 235.19659424 C-380.70348535 252.85699838 -438.25337958 276.60103929 -491.62164307 307.60137939 C-494.56053106 309.30703355 -497.50780657 310.99751942 -500.45611572 312.68682861 C-521.13578721 324.58362804 -541.06136176 337.38067021 -560.46783447 351.25323486 C-562.00689285 352.34568859 -563.54595528 353.4381366 -565.08502197 354.53057861 C-589.08467274 371.64177605 -612.1978985 390.1709841 -633.99127197 410.02276611 C-636.07161499 411.89638735 -638.17189697 413.7402546 -640.28424072 415.57745361 C-651.8265108 425.66351869 -662.74485683 436.43157195 -673.59283447 447.25323486 C-674.08365509 447.74146729 -674.57447571 448.22969971 -675.08016968 448.73272705 C-680.19426201 453.82549236 -685.19676098 458.95345654 -689.894104 464.43438721 C-692.45509943 467.39427177 -695.15760776 470.21902473 -697.84283447 473.06573486 C-702.4909898 478.03296579 -706.91261983 483.10899519 -711.16705322 488.42120361 C-713.82693825 491.69525564 -716.58054826 494.87821176 -719.34283447 498.06573486 C-725.28256499 504.9566445 -730.91907867 512.0456252 -736.46783447 519.25323486 C-737.08207275 520.04681396 -737.69631104 520.84039307 -738.3291626 521.65802002 C-746.50613913 532.2309386 -754.51925017 542.86139984 -761.94537354 553.97686768 C-763.70208259 556.60348012 -765.47203484 559.22098321 -767.24127197 561.83917236 C-780.48938368 581.50722843 -792.90041834 601.55283717 -804.46783447 622.25323486 C-804.94011475 623.09338135 -805.41239502 623.93352783 -805.89898682 624.7991333 C-830.2927013 668.30139683 -849.75343492 713.69267613 -865.96783447 760.81573486 C-866.33367645 761.87650742 -866.33367645 761.87650742 -866.70690918 762.95870972 C-872.21553677 778.98741293 -876.87112212 795.24962003 -881.21783447 811.62823486 C-881.42860626 812.42217651 -881.63937805 813.21611816 -881.85653687 814.03411865 C-885.43699628 827.60848538 -888.54249072 841.26067982 -891.40533447 855.00323486 C-891.59051636 855.88904236 -891.77569824 856.77484985 -891.9664917 857.6875 C-895.53634123 874.85226677 -898.44561842 892.03378475 -900.53033447 909.44073486 C-900.7727748 911.4386092 -901.01636431 913.43633987 -901.26039124 915.434021 C-901.50131727 917.40749601 -901.7408065 919.38114625 -901.98028564 921.35479736 C-902.46433978 925.22529136 -902.98982845 929.08838625 -903.52252197 932.95245361 C-904.41354497 939.58456388 -905.04525843 946.2052758 -905.53033447 952.87823486 C-905.64731689 954.37290283 -905.64731689 954.37290283 -905.7666626 955.89776611 C-906.02599019 959.3483233 -906.251821 962.79968892 -906.46783447 966.25323486 C-906.51233734 966.93535034 -906.55684021 967.61746582 -906.60269165 968.32025146 C-907.65090695 984.87034256 -907.65537162 1001.43033925 -907.65313721 1018.00616455 C-907.65305625 1021.15661395 -907.65996748 1024.30691699 -907.67364502 1027.45733643 C-907.79629237 1056.18337701 -906.15991914 1084.43054844 -902.84576416 1112.98956299 C-902.4937351 1116.02956584 -902.15587423 1119.07085541 -901.81939697 1122.11260986 C-899.93026221 1138.63688294 -897.08577798 1154.9928493 -894.16265869 1171.35968018 C-893.5915542 1174.55995231 -893.03031104 1177.76170253 -892.47174072 1180.96417236 C-890.52052748 1191.89032186 -888.04797293 1202.69632397 -885.53033447 1213.50323486 C-885.36688538 1214.20981232 -885.20343628 1214.91638977 -885.03503418 1215.64437866 C-882.55977211 1226.30278326 -879.66704648 1236.79028387 -876.46783447 1247.25323486 C-876.25611603 1247.94717346 -876.04439758 1248.64111206 -875.82626343 1249.3560791 C-857.18922024 1310.28538574 -834.01944875 1369.3033093 -802.02056885 1424.55352783 C-800.49651582 1427.2033672 -799.00130293 1429.86738557 -797.51470947 1432.53839111 C-790.58554445 1444.94117965 -783.04684343 1456.85969299 -775.17633057 1468.68536377 C-773.65794189 1470.96750324 -772.14857326 1473.25519644 -770.64361572 1475.54620361 C-765.12091589 1483.93095519 -759.37118623 1492.13284207 -753.46783447 1500.25323486 C-752.67868652 1501.34426514 -752.67868652 1501.34426514 -751.87359619 1502.45733643 C-744.16905228 1513.09641497 -736.21146234 1523.45142663 -727.84429932 1533.57696533 C-726.00172385 1535.82086798 -724.20321766 1538.09844484 -722.40533447 1540.37823486 C-715.16675955 1549.4493604 -707.51204265 1558.19871491 -699.69830322 1566.77667236 C-697.81493205 1568.86784105 -695.96019922 1570.9784625 -694.11236572 1573.10089111 C-684.36246879 1584.2584578 -673.99137668 1594.82933636 -663.53033447 1605.31573486 C-663.04032959 1605.80832794 -662.55032471 1606.30092102 -662.04547119 1606.80844116 C-656.93647242 1611.9387417 -651.78489791 1616.96836236 -646.28448486 1621.68170166 C-643.32515512 1624.24173466 -640.50112385 1626.94355892 -637.65533447 1629.62823486 C-632.60872503 1634.35519862 -627.43449299 1638.8283263 -622.03424072 1643.15167236 C-619.49224084 1645.23324913 -617.07254112 1647.40361866 -614.65533447 1649.62823486 C-609.1600266 1654.62318504 -603.34341486 1659.16314324 -597.47174072 1663.69952393 C-595.32769851 1665.36188804 -593.19402792 1667.03695924 -591.06158447 1668.71417236 C-582.69240439 1675.28541582 -574.26412247 1681.71701279 -565.53570557 1687.80548096 C-563.12650996 1689.49220232 -560.72933678 1691.19547885 -558.33111572 1692.89776611 C-544.68602384 1702.53829444 -530.74910211 1711.58538566 -516.46783447 1720.25323486 C-515.56774658 1720.80044189 -514.66765869 1721.34764893 -513.74029541 1721.91143799 C-436.64459186 1768.58283484 -352.54014911 1803.11105121 -248.46783447 1825.25323486 C-247.23984131 1825.50734131 -246.01184814 1825.76144775 -244.74664307 1826.02325439 C-221.7297274 1830.74745089 -198.57297738 1833.92033567 -175.21783447 1836.37823486 C-174.46893951 1836.45873077 -173.72004456 1836.53922668 -172.94845581 1836.62216187 C-145.40774845 1839.55498393 -117.95142463 1840.5924613 -90.27374268 1840.51397705 C-86.19333932 1840.50249682 -82.1131946 1840.50941693 -78.03279972 1840.52087021 C-61.1341631 1840.56095832 -44.44777469 1840.29773364 -27.62710571 1838.4755249 C-24.75885231 1838.18024743 -21.88930368 1837.99471291 -19.01080322 1837.83135986 C73.04964877 1832.34626302 166.36705842 1806.37212591 341.53216553 1719.25323486 C342.46963623 1718.67364014 343.40710693 1718.09404541 344.37298584 1717.49688721 C370.46857572 1701.30922416 395.58944811 1683.48427996 419.53216553 1664.25323486 C420.16718994 1663.74437744 420.80221436 1663.23552002 421.45648193 1662.71124268 C433.6051847 1652.9602712 445.53751985 1642.97563029 457.05560303 1632.48370361 C459.14677171 1630.60033245 461.25739317 1628.74559961 463.37982178 1626.89776611 C474.53738846 1617.14786918 485.10826703 1606.77677707 495.59466553 1596.31573486 C496.08725861 1595.82572998 496.57985168 1595.3357251 497.08737183 1594.83087158 C502.20742346 1589.73207916 507.22550152 1584.59051034 511.92938232 1579.10113525 C514.65714513 1575.95620964 517.54397292 1572.96183299 520.40716553 1569.94073486 C525.24521377 1564.79608567 529.86634801 1559.56059666 534.27435303 1554.03839111 C536.38739461 1551.43181906 538.56098818 1548.89778521 540.76580811 1546.3694458 C547.49242975 1538.64536504 553.72610338 1530.60587279 559.88665771 1522.42657471 C561.51853809 1520.2712336 563.16656508 1518.12940356 564.82122803 1515.99151611 C619.43438517 1445.37357945 659.95916279 1365.37678142 688.8772583 1281.15612793 C689.49331363 1279.36612262 690.11461492 1277.57792524 690.73626709 1275.78985596 C695.42989967 1262.28180315 699.38363596 1248.72608478 702.86175537 1234.85772705 C703.65798014 1231.7644547 704.53024795 1228.69786247 705.41912842 1225.63018799 C711.52665531 1204.43991547 715.42950616 1182.827187 719.21966553 1161.12823486 C719.41193726 1160.03746643 719.60420898 1158.946698 719.80230713 1157.82287598 C723.5622796 1136.40470551 726.26616181 1114.91382291 728.15716553 1093.25323486 C728.2783374 1091.95385986 728.39950928 1090.65448486 728.52435303 1089.31573486 C730.50815719 1067.3799864 730.72077537 1045.36432866 730.71746826 1023.35406494 C730.71738733 1020.59097706 730.72430326 1017.82805617 730.73797607 1015.06500244 C730.86534523 988.8807676 729.76079947 962.82461828 726.81634521 936.78692627 C726.50371457 933.9995716 726.20954465 931.21052291 725.91497803 928.42120361 C722.8529295 900.03350828 718.27637134 872.11382473 711.98718262 844.27191162 C711.53213205 842.25308634 711.08164168 840.23329056 710.63226318 838.2131958 C707.35107094 823.49344167 703.76051569 808.96320388 699.23968506 794.57354736 C698.53352273 792.25768582 697.8812738 789.93349269 697.24700928 787.59698486 C680.7369659 726.83486393 654.29163197 667.53036027 622.53216553 613.25323486 C621.46441571 611.41081099 620.39670768 609.56836289 619.32904053 607.72589111 C600.08327169 574.68198332 578.48271097 543.07174647 554.53216553 513.25323486 C554.02330811 512.61821045 553.51445068 511.98318604 552.99017334 511.32891846 C543.23920186 499.18021569 533.25456095 487.24788054 522.76263428 475.72979736 C520.87804392 473.63727498 519.02195336 471.5253622 517.17279053 469.40167236 C507.26821845 458.06747933 496.72188783 447.34255769 486.09466553 436.69073486 C485.58074249 436.17422363 485.06681946 435.6577124 484.537323 435.12554932 C479.27977332 429.84710843 473.9951451 424.65480903 468.33123779 419.80718994 C465.37624047 417.25480048 462.55957469 414.55704641 459.71966553 411.87823486 C454.7524346 407.23007953 449.6764052 402.8084495 444.36419678 398.55401611 C441.09014475 395.89413109 437.90718863 393.14052108 434.71966553 390.37823486 C427.82875589 384.43850434 420.73977519 378.80199067 413.53216553 373.25323486 C412.73858643 372.63899658 411.94500732 372.0247583 411.12738037 371.39190674 C400.55446179 363.21493021 389.92400055 355.20181917 378.80853271 347.7756958 C376.18192027 346.01898675 373.56441718 344.2490345 370.94622803 342.47979736 C310.22502851 301.57889534 244.83611269 268.59005482 175.43353271 245.24102783 C171.7365081 243.98234712 168.06157215 242.66569455 164.38519287 241.34820557 C156.79617695 238.637426 149.23183479 236.23489847 141.41107178 234.26104736 C138.68834049 233.57042375 135.99825767 232.8082857 133.30950928 231.99542236 C70.3553156 213.0313938 1.49867602 202.13164766 -64.29595947 202.08526611 C-65.7666479 202.0811393 -67.23733578 202.07681078 -68.70802307 202.07229614 C-73.37797429 202.06069175 -78.04787364 202.0618515 -82.71783447 202.06573486 C-83.51484142 202.06614902 -84.31184837 202.06656319 -85.13300705 202.0669899 C-120.3419729 202.06967924 -120.3419729 202.06967924 -155.46783447 204.25323486 Z " fill="#B22234" transform="translate(1112.4678344726563,2.74676513671875)"/>
<path d="M0 0 C2.93758936 0.32261673 5.87624487 0.59649767 8.82080078 0.84765625 C22.64567902 2.04082136 36.2924839 3.98853802 49.99145508 6.18164062 C51.10913269 6.35904785 52.2268103 6.53645508 53.37835693 6.71923828 C89.21155053 12.41830375 124.81839773 19.49931382 159.41210938 30.59228516 C162.37079729 31.53230632 165.33861887 32.43958889 168.30786133 33.34570312 C225.97441873 51.06065319 281.90089962 75.06924963 334.05395508 105.43164062 C335.42994873 106.22803955 335.42994873 106.22803955 336.83374023 107.04052734 C375.96547191 129.71969307 413.76695772 155.4147865 448.10864258 184.91992188 C450.90774587 187.30695558 453.75080598 189.62524214 456.61645508 191.93164062 C461.60563925 195.98989831 466.33066123 200.27679628 471.03442383 204.65820312 C473.31257509 206.77131018 475.63622444 208.82488437 477.97973633 210.86523438 C489.29823257 220.7336694 499.99002034 231.26724778 510.61645508 241.86914062 C511.13296631 242.38306366 511.64947754 242.89698669 512.18164062 243.42648315 C517.46008151 248.68403284 522.65238091 253.96866105 527.5 259.63256836 C530.05238946 262.58756568 532.75014354 265.40423146 535.42895508 268.24414062 C540.07711041 273.21137155 544.49874044 278.28740096 548.75317383 283.59960938 C551.4130601 286.87366294 554.16670148 290.05658766 556.92895508 293.24414062 C616.05234788 361.84888406 662.45292369 444.04716159 714.40942383 592 C715.04685906 594.40486927 715.74046584 596.78458334 716.46020508 599.16601562 C721.64637855 616.35368228 725.34275251 633.87877354 729.05395508 651.43164062 C729.19895447 652.11242676 729.34395386 652.79321289 729.49334717 653.49462891 C733.76221537 673.54996337 736.75251342 693.64399312 739.2507019 713.98188782 C739.83674365 718.74866288 740.47128055 723.50613523 741.12817383 728.26367188 C742.01516766 734.87173195 742.63526391 741.47033399 743.11645508 748.11914062 C743.19444336 749.12396484 743.27243164 750.12878906 743.3527832 751.1640625 C743.6091194 754.58540932 743.83556089 758.00766006 744.05395508 761.43164062 C744.09879028 762.09791473 744.14362549 762.76418884 744.18981934 763.45065308 C745.19487062 778.73708139 745.20896622 794.02601502 745.18432617 809.33813477 C745.17865673 812.88963597 745.1820066 816.4410618 745.18775845 819.99256039 C745.21909532 842.70380008 744.83980498 865.36648613 742.74145508 887.99414062 C742.64533432 889.04758667 742.64533432 889.04758667 742.54727173 890.12231445 C740.0409278 917.47033439 736.11414876 944.44879488 731.05395508 971.43164062 C730.79146973 972.85959961 730.79146973 972.85959961 730.52368164 974.31640625 C726.27789177 997.34959187 721.00756231 1020.46255533 713.87451172 1042.77856445 C713.01800996 1045.54786069 712.21185693 1048.33009983 711.40872192 1051.11526489 C708.39012914 1061.54959679 705.00735892 1071.84279323 701.49145508 1082.11914062 C701.18782043 1083.00804993 700.88418579 1083.89695923 700.5713501 1084.81280518 C676.21670624 1155.90285069 641.69411266 1225.45330559 597.52807617 1286.39257812 C595.98033634 1288.53347297 594.44787385 1290.68474051 592.91723633 1292.83789062 C575.75276062 1316.9077049 557.19611784 1340.095933 537.28442383 1361.95507812 C535.41080259 1364.03542114 533.56693534 1366.13570313 531.72973633 1368.24804688 C521.64367125 1379.79031695 510.87561799 1390.70866298 500.05395508 1401.55664062 C499.56572266 1402.04746124 499.07749023 1402.53828186 498.57446289 1403.04397583 C493.48169758 1408.15806816 488.3537334 1413.16056713 482.87280273 1417.85791016 C479.91291817 1420.41890558 477.08816521 1423.12141391 474.24145508 1425.80664062 C469.27422415 1430.45479596 464.19819475 1434.87642598 458.88598633 1439.13085938 C455.61193276 1441.79074565 452.42900804 1444.54438703 449.24145508 1447.30664062 C375.10035028 1511.20125552 285.92816984 1559.29703311 -7.2355957 1633.14477539 C-10.02557898 1633.36047682 -12.79338802 1633.62046503 -15.57446289 1633.91967773 C-32.94788762 1635.72593307 -50.27910329 1635.78879108 -67.72460938 1635.74949646 C-70.22583162 1635.74407607 -72.72704443 1635.74169428 -75.22827148 1635.73962402 C-100.90572234 1635.70651649 -126.38493193 1635.04250702 -151.94604492 1632.43164062 C-153.48279651 1632.27994622 -155.01958054 1632.12858008 -156.55639648 1631.97753906 C-166.70901587 1630.96710859 -176.83243175 1629.77629721 -186.94604492 1628.43164062 C-187.63253113 1628.34054016 -188.31901733 1628.2494397 -189.02630615 1628.15557861 C-227.86361654 1622.96077913 -266.4293978 1614.7487527 -303.94604492 1603.43164062 C-305.00662109 1603.11501465 -306.06719727 1602.79838867 -307.15991211 1602.47216797 C-367.27677256 1584.46445899 -425.7188903 1560.12617201 -479.94604492 1528.43164062 C-481.5605957 1527.49167236 -481.5605957 1527.49167236 -483.20776367 1526.53271484 C-503.93826517 1514.44091629 -524.40131118 1502.00827677 -543.85864258 1487.93798828 C-546.02033675 1486.37802886 -548.19131913 1484.83170372 -550.36401367 1483.28710938 C-574.72052697 1465.91561132 -598.24105197 1447.15665824 -620.25073242 1426.88085938 C-622.42156212 1424.90823587 -624.61296927 1422.97072247 -626.82495117 1421.04492188 C-637.97581219 1411.31010535 -648.53282106 1400.94453401 -659.00854492 1390.49414062 C-659.501138 1390.00413574 -659.99373108 1389.51413086 -660.50125122 1389.00927734 C-665.63155176 1383.90027857 -670.66117242 1378.74870406 -675.37451172 1373.24829102 C-677.93455345 1370.28895118 -680.63653081 1367.46509529 -683.32104492 1364.61914062 C-687.96920025 1359.6519097 -692.39083028 1354.57588029 -696.64526367 1349.26367188 C-699.30514995 1345.98961831 -702.05879132 1342.80669359 -704.82104492 1339.61914062 C-759.35586202 1276.33882198 -802.31100372 1201.61018389 -859.94604492 1049.43164062 C-860.27548096 1048.39072266 -860.60491699 1047.34980469 -860.94433594 1046.27734375 C-863.50757835 1038.09786858 -865.74915655 1029.85750946 -867.88354492 1021.55664062 C-868.36597656 1019.71585938 -868.36597656 1019.71585938 -868.8581543 1017.83789062 C-873.80201239 998.68653502 -877.65768081 979.34235711 -881.00366211 959.85302734 C-881.56979455 956.56390504 -882.14809815 953.2770782 -882.72729492 949.99023438 C-886.1947469 930.08087481 -888.69048805 910.08838754 -890.39916992 889.953125 C-890.62532203 887.29326786 -890.86291698 884.63445783 -891.1003418 881.97558594 C-892.33942862 867.37031011 -893.10637725 852.83978463 -893.11401367 838.18164062 C-893.11724873 836.6707354 -893.12061421 835.15983045 -893.12409973 833.64892578 C-893.13002845 830.49934163 -893.1319466 827.34978463 -893.13134766 824.20019531 C-893.13126716 821.04974531 -893.13809782 817.8994431 -893.15185547 814.74902344 C-893.27451002 786.21312251 -892.30872817 757.79587378 -888.94604492 729.43164062 C-888.83647461 728.50657715 -888.7269043 727.58151367 -888.61401367 726.62841797 C-887.88577368 720.5514153 -887.12120933 714.47962655 -886.33276367 708.41015625 C-886.08040065 706.46645118 -885.83029596 704.52245117 -885.58276367 702.578125 C-880.73119663 664.53864055 -872.9910031 626.17723045 -861.94604492 589.43164062 C-861.63973145 588.40876953 -861.33341797 587.38589844 -861.01782227 586.33203125 C-842.16558375 523.73579932 -817.19040414 462.83946438 -783.94604492 406.43164062 C-783.45330078 405.59068848 -782.96055664 404.74973633 -782.45288086 403.88330078 C-762.88609461 370.56566244 -741.15782092 338.55704518 -716.94604492 308.43164062 C-716.43187012 307.79129883 -715.91769531 307.15095703 -715.38793945 306.49121094 C-705.70143522 294.45073196 -695.90899191 282.52594003 -685.43041992 271.16210938 C-683.44386169 268.97876943 -681.49338378 266.77486045 -679.55541992 264.54882812 C-669.8224935 253.39880224 -659.4576066 242.84352956 -649.00854492 232.36914062 C-648.51854004 231.87654755 -648.02853516 231.38395447 -647.52368164 230.87643433 C-642.42488921 225.75638269 -637.28332039 220.73830463 -631.79394531 216.03442383 C-628.6490197 213.30666103 -625.65464305 210.41983323 -622.63354492 207.55664062 C-617.48889573 202.71859238 -612.25340672 198.09745814 -606.73120117 193.68945312 C-604.12462912 191.57641155 -601.59059526 189.40281797 -599.06225586 187.19799805 C-591.3381751 180.4713764 -583.29868285 174.23770278 -575.11938477 168.07714844 C-572.96404365 166.44526806 -570.82221362 164.79724107 -568.68432617 163.14257812 C-495.42802911 106.48631334 -411.88893362 64.50110692 -289.94604492 25.43164062 C-289.13473114 25.21358765 -288.32341736 24.99553467 -287.48751831 24.77087402 C-273.23689675 20.94911422 -258.94160553 17.49250969 -244.50854492 14.43164062 C-243.5046875 14.21820007 -242.50083008 14.00475952 -241.46655273 13.78485107 C-208.9926616 6.92268707 -176.25026117 2.44370673 -143.18701172 -0.37695312 C-141.74883713 -0.499791 -140.31083015 -0.62461677 -138.87304688 -0.75195312 C-93.33370076 -4.77950861 -45.4444639 -5.00444829 0 0 Z M-151.60620117 206.65039062 C-155.33176286 207.22668787 -159.06118276 207.67391618 -162.80859375 208.0836792 C-172.47935919 209.15144053 -181.96912781 210.78310605 -191.50854492 212.68164062 C-192.28774292 212.83503906 -193.06694092 212.9884375 -193.86975098 213.14648438 C-207.34609244 215.80535796 -220.69455571 218.80125554 -233.94604492 222.43164062 C-235.34113281 222.8094165 -235.34113281 222.8094165 -236.7644043 223.19482422 C-319.58984054 245.82867461 -398.01044168 286.42100569 -463.94604492 341.43164062 C-464.53643555 341.92293457 -465.12682617 342.41422852 -465.73510742 342.92041016 C-472.07580495 348.2072866 -478.3256184 353.58438568 -484.42675781 359.14770508 C-485.95853686 360.53638547 -487.49826492 361.91644958 -489.05200195 363.28051758 C-496.51796817 369.86159805 -503.53629978 376.86985748 -510.56054688 383.91577148 C-512.63648918 385.99709252 -514.71774914 388.07298875 -516.79956055 390.1484375 C-518.14428244 391.49382 -519.48869421 392.83951257 -520.83276367 394.18554688 C-521.7486451 395.09839195 -521.7486451 395.09839195 -522.68302917 396.02967834 C-526.966275 400.33589221 -530.98916186 404.825168 -534.94604492 409.43164062 C-535.89615653 410.52574613 -536.84660421 411.61956002 -537.79760742 412.71289062 C-564.71427122 443.87879585 -588.80233625 477.47730424 -608.94604492 513.43164062 C-609.44749023 514.32318848 -609.94893555 515.21473633 -610.46557617 516.13330078 C-628.15206133 547.71710956 -642.94166733 580.28719112 -654.94604492 614.43164062 C-655.2729834 615.35734863 -655.59992188 616.28305664 -655.93676758 617.23681641 C-668.7439465 653.7723874 -677.58935873 692.0985614 -682.94604492 730.43164062 C-683.13529541 731.78128906 -683.13529541 731.78128906 -683.32836914 733.15820312 C-686.92128033 759.23678715 -688.32914606 785.16933877 -688.26369858 811.47160339 C-688.25846675 813.71516196 -688.25654691 815.95870661 -688.2550354 818.20227051 C-688.22824996 841.06703023 -687.50311451 863.69495326 -684.94604492 886.43164062 C-684.73751202 888.53175248 -684.5303719 890.63200333 -684.32495117 892.73242188 C-680.55483662 928.73025665 -672.22927882 965.10362246 -660.94604492 999.43164062 C-660.73808289 1000.06541626 -660.53012085 1000.69919189 -660.31585693 1001.35217285 C-636.00296937 1075.31022992 -600.14460357 1144.61477033 -550.36987305 1204.70361328 C-549.08540615 1206.26250503 -547.81925555 1207.83644502 -546.55541992 1209.41210938 C-542.03861772 1215.04186463 -537.30477794 1220.40452606 -532.36962891 1225.66674805 C-529.7549469 1228.45535569 -527.20254347 1231.27976574 -524.70800781 1234.17675781 C-521.20433738 1238.18811968 -517.533671 1241.9892023 -513.76245117 1245.74804688 C-513.1032518 1246.40820297 -512.44405243 1247.06835907 -511.76487732 1247.7485199 C-510.38207657 1249.13199568 -508.99803417 1250.51423146 -507.61279297 1251.89526367 C-505.51374149 1253.98895732 -503.42008552 1256.08793937 -501.3269043 1258.1875 C-499.97240706 1259.54133633 -498.61759961 1260.89486238 -497.26245117 1262.24804688 C-496.64761368 1262.8649086 -496.03277618 1263.48177032 -495.39930725 1264.11732483 C-491.07588533 1268.41793609 -486.57151521 1272.45932811 -481.94604492 1276.43164062 C-480.85193121 1277.38174278 -479.75811601 1278.33218897 -478.66479492 1279.28320312 C-446.50381207 1307.05634631 -412.06864038 1331.69087804 -374.94604492 1352.43164062 C-373.59784668 1353.18695068 -373.59784668 1353.18695068 -372.22241211 1353.95751953 C-338.49911327 1372.76274158 -303.48499387 1387.98320683 -266.94604492 1400.43164062 C-266.11588867 1400.71700684 -265.28573242 1401.00237305 -264.43041992 1401.29638672 C-182.29323214 1429.2832173 -91.95384201 1437.18639144 -5.94604492 1427.43164062 C-3.53354977 1427.1868249 -1.12079347 1426.9445668 1.29223633 1426.70507812 C13.4854051 1425.45212432 25.38956256 1423.57090087 37.36645508 1420.99072266 C41.46131087 1420.13886766 45.57402024 1419.38744997 49.68603516 1418.62353516 C72.00845948 1414.45193603 93.45916278 1408.44573697 115.05395508 1401.43164062 C115.70078247 1401.22196655 116.34760986 1401.01229248 117.01403809 1400.79626465 C188.84155252 1377.45711512 256.09561621 1341.08879083 314.3215332 1292.85986328 C316.79706385 1290.81901572 319.30393723 1288.81736927 321.80395508 1286.80664062 C326.72097303 1282.78429812 331.38781298 1278.53324991 336.03442383 1274.20507812 C338.2380064 1272.15829552 340.4928973 1270.18347752 342.77172852 1268.22094727 C346.86958664 1264.64021908 350.74830681 1260.88231207 354.58911133 1257.02929688 C355.27146347 1256.34790146 355.95381561 1255.66650604 356.65684509 1254.96446228 C358.08739944 1253.53458322 359.51671275 1252.10346151 360.94482422 1250.67114258 C363.11094582 1248.49966351 365.28235682 1246.33357737 367.4543457 1244.16796875 C368.85375495 1242.76789861 370.25285391 1241.36751824 371.65161133 1239.96679688 C372.29034683 1239.3300856 372.92908234 1238.69337433 373.58717346 1238.03736877 C377.93969574 1233.66251288 382.0306083 1229.10934865 386.05395508 1224.43164062 C387.0878427 1223.25214199 388.12280908 1222.07358697 389.15942383 1220.89648438 C441.95202937 1160.5995874 481.72096599 1090.34640469 507.91064453 1014.69628906 C508.70119378 1012.43892741 509.50811197 1010.18725598 510.328125 1007.94042969 C513.08471465 1000.38667828 515.46308512 992.83631499 517.49145508 985.05664062 C517.78729492 983.93362549 518.08313477 982.81061035 518.38793945 981.65356445 C518.99316748 979.34718559 519.59524943 977.03997871 520.1940918 974.73193359 C520.97809098 971.7228192 521.78118328 968.71955227 522.58911133 965.71679688 C530.2326926 936.83626308 535.04183347 907.415828 537.83197021 877.69424438 C538.06498853 875.31918101 538.32872943 872.94862448 538.59350586 870.5769043 C540.36114303 853.86389338 540.36192627 837.18371235 540.31469727 820.39868164 C540.30331313 816.31696058 540.3100726 812.23550068 540.32157898 808.15378857 C540.37737616 784.82050623 539.44116399 761.93733791 535.83520508 738.84179688 C535.26362066 735.08939662 534.81443239 731.33311352 534.4019165 727.56002808 C533.33389202 717.89248031 531.70187099 708.40544917 529.80395508 698.86914062 C529.65055664 698.08994263 529.4971582 697.31074463 529.33911133 696.50793457 C526.68023774 683.03159311 523.68434016 669.68312984 520.05395508 656.43164062 C519.80210449 655.50158203 519.55025391 654.57152344 519.29077148 653.61328125 C496.85999532 571.53096698 456.76911967 493.70102914 402.4777832 428.15966797 C401.19331631 426.60077622 399.92716571 425.02683623 398.66333008 423.45117188 C394.14652788 417.82141662 389.4126881 412.45875519 384.47753906 407.1965332 C381.8672058 404.41256358 379.3192606 401.59298393 376.82958984 398.70019531 C373.2538897 394.60643429 369.50009743 390.73277416 365.65161133 386.89648438 C364.97021591 386.21413223 364.2888205 385.53178009 363.58677673 384.82875061 C362.15689767 383.39819626 360.72577597 381.96888295 359.29345703 380.54077148 C357.12197797 378.37464989 354.95589183 376.20323889 352.7902832 374.03125 C351.39021306 372.63184075 349.98983269 371.23274179 348.58911133 369.83398438 C347.95240005 369.19524887 347.31568878 368.55651337 346.65968323 367.89842224 C342.28513869 363.54620973 337.73596391 359.44969188 333.05395508 355.43164062 C331.95980422 354.48158125 330.86598285 353.53114207 329.77270508 352.58007812 C299.19105395 326.16800969 266.30941762 302.6589563 231.17944336 282.64941406 C229.31065866 281.57871591 227.45789834 280.48737985 225.61254883 279.37695312 C218.42731636 275.07155418 211.02231453 271.28751359 203.49633789 267.62402344 C201.77183586 266.78211341 200.05008188 265.93456322 198.33032227 265.08300781 C182.19108315 257.09194447 165.82035773 249.99867124 149.05395508 243.43164062 C148.06637207 243.03879883 147.07878906 242.64595703 146.0612793 242.24121094 C123.60991508 233.33055277 100.41881794 226.50066905 77.05395508 220.43164062 C76.04679443 220.16971924 75.03963379 219.90779785 74.00195312 219.63793945 C58.16628879 215.57872497 42.25065556 212.58474984 26.12011719 209.96069336 C23.52627033 209.51313654 20.974265 208.98948832 18.40551758 208.41992188 C11.17342412 206.9384109 3.79890354 206.3541947 -3.5390625 205.62670898 C-6.11087854 205.37139084 -8.6817936 205.10819444 -11.25268555 204.84375 C-12.93558077 204.67335852 -14.61852219 204.50342247 -16.30151367 204.33398438 C-17.04580124 204.25792465 -17.79008881 204.18186493 -18.55693054 204.10350037 C-31.23110783 202.85622586 -43.85677376 202.27047325 -56.59057617 202.26367188 C-58.05384856 202.26044011 -59.51712066 202.25707479 -60.98039246 202.25358582 C-64.03006739 202.24765262 -67.07971425 202.2457396 -70.12939453 202.24633789 C-73.19586141 202.24641867 -76.26217736 202.23954299 -79.32861328 202.22583008 C-103.60682766 202.11899541 -127.57150593 202.84658176 -151.60620117 206.65039062 Z " fill="#FEFEFE" transform="translate(1097.946044921875,207.568359375)"/>
<path d="M0 0 C0.66 0 1.32 0 2 0 C2.23654297 0.78181641 2.47308594 1.56363281 2.71679688 2.36914062 C5.18250336 10.4583882 7.79822017 18.48687142 10.5 26.5 C11.26196677 28.75989461 12.02238809 31.0203109 12.78125 33.28125 C13.11189453 34.26158203 13.44253906 35.24191406 13.78320312 36.25195312 C14.83900023 39.50407937 15.85011988 42.76441957 16.84863281 46.03442383 C19.01819154 53.11084146 21.31775047 60.14062458 23.640625 67.16796875 C24.08407886 68.51326291 24.52736763 69.85861149 24.97050476 71.20401001 C25.90879741 74.05247712 26.84760199 76.90077462 27.78683472 79.74893188 C34.92805951 101.40806707 42.02802101 123.07810632 48.9375 144.8125 C55.39705904 165.12444895 62.02357131 185.37942507 68.6875 205.625 C69.18767232 207.1448638 69.68783514 208.66473072 70.18798828 210.18460083 C72.12492358 216.07035885 74.06214203 221.95602364 75.99963379 227.84159851 C79.71193518 239.11942355 83.41992196 250.39863729 87.10098267 261.68670654 C87.65309381 263.37850997 88.20627413 265.0699649 88.7605896 266.76104736 C89.49814655 269.01166998 90.23207899 271.26343843 90.96484375 273.515625 C91.56220337 275.34528809 91.56220337 275.34528809 92.17163086 277.21191406 C93 280 93 280 93 282 C191.01 282 289.02 282 390 282 C384.37414966 287.62585034 384.37414966 287.62585034 380.98828125 290.09375 C379.86570923 290.91661499 379.86570923 290.91661499 378.72045898 291.75610352 C377.52851929 292.61933228 377.52851929 292.61933228 376.3125 293.5 C375.475979 294.11093506 374.63945801 294.72187012 373.77758789 295.35131836 C371.18881152 297.23943916 368.59520648 299.12072963 366 301 C365.22301758 301.56348145 364.44603516 302.12696289 363.64550781 302.70751953 C359.18094238 305.94370323 354.7090766 309.16964261 350.23388672 312.39111328 C346.48640231 315.09012118 342.74338799 317.79531494 339 320.5 C334.51389621 323.74131453 330.02695169 326.98141954 325.53515625 330.21484375 C317.82537027 335.76804624 310.14242369 341.35437205 302.5 347 C292.64592179 354.27942622 282.71425666 361.44830324 272.77050781 368.60449219 C264.31406964 374.6923875 255.88111091 380.80868741 247.5 387 C239.12051542 393.19011119 230.68892637 399.30474309 222.23388672 405.39111328 C218.48640231 408.09012118 214.74338799 410.79531494 211 413.5 C206.51389621 416.74131453 202.02695169 419.98141954 197.53515625 423.21484375 C188.93891529 429.4066534 180.38564659 435.6523749 171.86621094 441.94946289 C164.96501745 447.04323524 158.00042157 452.04374721 151 457 C152.8728702 464.08678498 154.92536659 471.07758548 157.23046875 478.03515625 C157.5379303 478.97148392 157.84539185 479.90781158 158.16217041 480.87251282 C158.82371867 482.8868668 159.48639824 484.90084955 160.15011597 486.91448975 C161.94508646 492.36144605 163.73078162 497.81143695 165.515625 503.26171875 C165.88501694 504.38950745 166.25440887 505.51729614 166.63499451 506.67926025 C170.62891282 518.89210145 174.53544819 531.13256461 178.4375 543.375 C182.95635865 557.54884865 187.49025312 571.71350258 192.26342773 585.80419922 C193.89768238 590.63520711 195.46579284 595.47698998 196.953125 600.35546875 C199.01483489 607.11201802 201.24316149 613.80650968 203.5 620.5 C206.10169901 628.21630185 208.61236992 635.94692466 210.98632812 643.73632812 C212.7314547 649.35503044 214.62033534 654.92515841 216.5 660.5 C217.26196677 662.75989461 218.02238809 665.0203109 218.78125 667.28125 C219.11189453 668.26158203 219.44253906 669.24191406 219.78320312 670.25195312 C220.84932069 673.53586903 221.8718819 676.82815708 222.88183594 680.12963867 C224.88363804 686.65962272 226.98003324 693.15517998 229.109375 699.64453125 C229.48104797 700.78033127 229.85272095 701.91613129 230.23565674 703.08634949 C231.40603049 706.66208571 232.57798575 710.23730118 233.75 713.8125 C234.55088659 716.25842905 235.35166876 718.7043923 236.15234375 721.15039062 C238.10035744 727.10065562 240.04966466 733.0504956 242 739 C238.52080594 739 237.88298833 738.43728985 235.18359375 736.39453125 C234.42884766 735.82992187 233.67410156 735.2653125 232.89648438 734.68359375 C232.08501953 734.06613281 231.27355469 733.44867187 230.4375 732.8125 C228.70765021 731.51610077 226.97716678 730.22054665 225.24609375 728.92578125 C224.36808105 728.26658691 223.49006836 727.60739258 222.58544922 726.92822266 C218.75658476 724.0726635 214.88060255 721.28461377 211 718.5 C204.71780931 713.98041845 198.47339832 709.41267371 192.25 704.8125 C185.73140208 699.99594759 179.17551521 695.23976924 172.5703125 690.54296875 C161.33484157 682.55154225 150.19855572 674.42577605 139.10888672 666.23364258 C130.7856412 660.09126792 122.39600805 654.04233081 114 648 C103.99449602 640.79936792 94.02311522 633.55749214 84.10791016 626.23291016 C76.5233116 620.63567826 68.8841167 615.11591373 61.23388672 609.60888672 C56.73476831 606.36853805 52.24175881 603.11972298 47.74755859 599.87255859 C44.012055 597.17401978 40.2751852 594.47742047 36.53515625 591.78515625 C35.0442459 590.7109721 33.55336045 589.63675339 32.0625 588.5625 C31.33272949 588.0375293 30.60295898 587.51255859 29.85107422 586.97167969 C25.80211846 584.05132491 21.78102914 581.09812563 17.78515625 578.10546875 C16.9233374 577.462146 16.06151855 576.81882324 15.17358398 576.15600586 C13.50883239 574.91099047 11.84799594 573.660718 10.19165039 572.40454102 C9.44004639 571.84307373 8.68844238 571.28160645 7.9140625 570.703125 C7.2535791 570.20458008 6.5930957 569.70603516 5.91259766 569.19238281 C3.87846745 567.92423219 2.37989302 567.28214606 0 567 C-2.22050625 568.28555625 -4.10648934 569.56966442 -6.125 571.125 C-7.3826192 572.05885413 -8.64044163 572.9924346 -9.8984375 573.92578125 C-10.89762207 574.67722412 -10.89762207 574.67722412 -11.91699219 575.44384766 C-15.49285427 578.11526643 -19.12580125 580.70727545 -22.75 583.3125 C-24.28810674 584.42400008 -25.82586386 585.53598411 -27.36328125 586.6484375 C-30.39993186 588.84451263 -33.4389656 591.03721325 -36.48046875 593.2265625 C-44.1853087 598.77549973 -51.8628106 604.35823874 -59.5 610 C-69.35407821 617.27942622 -79.28574334 624.44830324 -89.22949219 631.60449219 C-97.68593036 637.6923875 -106.11888909 643.80868741 -114.5 650 C-122.87948458 656.19011119 -131.31107363 662.30474309 -139.76611328 668.39111328 C-143.51359769 671.09012118 -147.25661201 673.79531494 -151 676.5 C-155.48610379 679.74131453 -159.97304831 682.98141954 -164.46484375 686.21484375 C-172.17462973 691.76804624 -179.85757631 697.35437205 -187.5 703 C-197.42837614 710.33431174 -207.4339933 717.55873504 -217.45507812 724.765625 C-219.10966195 725.95578694 -220.76388244 727.14645417 -222.41772461 728.33764648 C-223.96977536 729.45552176 -225.52262354 730.57229105 -227.07641602 731.68774414 C-230.79746786 734.3684194 -234.45062647 737.09216353 -238 740 C-238.66 739.67 -239.32 739.34 -240 739 C-239.8141333 738.4831665 -239.6282666 737.96633301 -239.43676758 737.43383789 C-236.26435346 728.57942968 -233.12012429 719.74173388 -230.5625 710.6875 C-228.63119956 703.86215512 -226.36587811 697.18646253 -224 690.5 C-221.65625214 683.87533046 -219.40803674 677.26366125 -217.5 670.5 C-215.33318815 662.81902557 -212.73489267 655.31371629 -210.02929688 647.80664062 C-208.1156907 642.43694572 -206.40460367 637.03694962 -204.83203125 631.55859375 C-201.52953486 620.11005427 -197.72901114 608.82148916 -193.99111938 597.50949097 C-191.74430385 590.70934628 -189.5084276 583.90560134 -187.2734375 577.1015625 C-187.04801332 576.41548101 -186.82258915 575.72939953 -186.59033394 575.02252769 C-181.60917599 559.85709903 -176.74260454 544.65585416 -171.90722656 529.44335938 C-168.39989346 518.42252045 -164.83258741 507.42401136 -161.1953125 496.4453125 C-160.39346601 494.018964 -159.59162675 491.59261311 -158.78979492 489.16625977 C-157.25033307 484.50975004 -155.6992011 479.85733833 -154.1418457 475.20678711 C-153.44701519 473.10804691 -152.75257648 471.00917694 -152.05859375 468.91015625 C-151.73243073 467.94711578 -151.4062677 466.98407532 -151.07022095 465.99185181 C-150.78077606 465.1103244 -150.49133118 464.228797 -150.19311523 463.32055664 C-149.93715073 462.5542543 -149.68118622 461.78795197 -149.41746521 460.99842834 C-148.78462811 458.80689011 -148.78462811 458.80689011 -150 456 C-151.94791633 454.44046266 -153.87999886 453.02597736 -155.9375 451.625 C-157.22317323 450.72860562 -158.50830345 449.83143205 -159.79296875 448.93359375 C-160.47794434 448.45776855 -161.16291992 447.98194336 -161.86865234 447.49169922 C-165.52587361 444.93206326 -169.13578516 442.30733393 -172.75 439.6875 C-174.28762762 438.57533721 -175.82538938 437.46335986 -177.36328125 436.3515625 C-178.1310791 435.79629883 -178.89887695 435.24103516 -179.68994141 434.66894531 C-181.95180829 433.03481701 -184.21576308 431.4036287 -186.48046875 429.7734375 C-194.98992059 423.64502803 -203.45739685 417.46380502 -211.89208984 411.23291016 C-220.21502749 405.09080366 -228.60432215 399.04209317 -237 393 C-247.00550398 385.79936792 -256.97688478 378.55749214 -266.89208984 371.23291016 C-274.4766884 365.63567826 -282.1158833 360.11591373 -289.76611328 354.60888672 C-294.26523169 351.36853805 -298.75824119 348.11972298 -303.25244141 344.87255859 C-306.987945 342.17401978 -310.7248148 339.47742047 -314.46484375 336.78515625 C-322.97920681 330.65243321 -331.45216202 324.46767211 -339.89208984 318.23291016 C-345.26074442 314.27098595 -350.65133092 310.34114133 -356.0625 306.4375 C-356.79170654 305.91091797 -357.52091309 305.38433594 -358.2722168 304.84179688 C-362.15703135 302.03955122 -366.05053003 299.25008946 -369.953125 296.47265625 C-370.76644287 295.89136963 -371.57976074 295.31008301 -372.41772461 294.71118164 C-373.96781649 293.6035668 -375.52055137 292.49963759 -377.07641602 291.40014648 C-378.13107056 290.64519897 -378.13107056 290.64519897 -379.20703125 289.875 C-379.8203833 289.43929688 -380.43373535 289.00359375 -381.06567383 288.5546875 C-383.54481971 286.5621088 -385.75094084 284.24905916 -388 282 C-289.99 282 -191.98 282 -91 282 C-89.515 276.555 -89.515 276.555 -88 271 C-87.31909034 268.79146141 -86.61990945 266.5883801 -85.89379883 264.39428711 C-85.50456741 263.21309799 -85.115336 262.03190887 -84.71430969 260.81492615 C-84.29940781 259.56502396 -83.88450592 258.31512177 -83.45703125 257.02734375 C-83.01196452 255.67909934 -82.56720417 254.33075376 -82.12272644 252.98231506 C-81.1793126 250.12145813 -80.2344304 247.26109266 -79.28833008 244.40112305 C-76.77424833 236.79993933 -74.27131776 229.19508154 -71.76953125 221.58984375 C-71.51894077 220.82826336 -71.2683503 220.06668297 -71.01016617 219.28202438 C-66.60101968 205.87755029 -62.27448283 192.44804915 -58 179 C-50.99381606 156.96885813 -43.79606239 135.00241746 -36.56027603 113.04585457 C-35.66852407 110.33984401 -34.77710584 107.63372364 -33.88585663 104.92754745 C-33.44763857 103.59701824 -33.00931017 102.26652535 -32.57086945 100.93606949 C-30.10685332 93.45661967 -27.6618345 85.97151848 -25.25292969 78.47412109 C-25.02776609 77.77369155 -24.8026025 77.073262 -24.57061577 76.35160732 C-23.49922165 73.0169719 -22.43055283 69.68150032 -21.36636353 66.34455872 C-19.31329591 59.93838265 -17.17686988 53.58421931 -14.82783508 47.28009033 C-13.66678821 44.08224115 -12.7324521 40.83696552 -11.8125 37.5625 C-9.44785157 29.29754696 -6.82826176 21.11727598 -4.1875 12.9375 C-3.87735458 11.97663986 -3.87735458 11.97663986 -3.5609436 10.99636841 C-2.37681117 7.32998668 -1.18964267 3.66459722 0 0 Z " fill="#FEFEFE" transform="translate(1023,615)"/>
<path d="M0 0 C5.03458375 1.18407625 9.10239505 4.78832394 13.1875 7.8125 C14.80588677 8.99623432 16.42437929 10.17982409 18.04296875 11.36328125 C18.86716309 11.96865723 19.69135742 12.5740332 20.54052734 13.19775391 C24.34542297 15.98589561 28.17313598 18.7421347 32 21.5 C33.50140501 22.58449294 35.00270682 23.66912875 36.50390625 24.75390625 C39.48909108 26.91005299 42.47621388 29.06347504 45.46484375 31.21484375 C53.97920681 37.34756679 62.45216202 43.53232789 70.89208984 49.76708984 C79.21502749 55.90919634 87.60432215 61.95790683 96 68 C106.00550398 75.20063208 115.97688478 82.44250786 125.89208984 89.76708984 C133.4766884 95.36432174 141.1158833 100.88408627 148.76611328 106.39111328 C153.26523169 109.63146195 157.75824119 112.88027702 162.25244141 116.12744141 C165.987945 118.82598022 169.7248148 121.52257953 173.46484375 124.21484375 C181.97920681 130.34756679 190.45216202 136.53232789 198.89208984 142.76708984 C206.4505184 148.34500897 214.06314511 153.84600656 221.68701172 159.33398438 C225.83610956 162.32252604 229.98019804 165.31800486 234.125 168.3125 C235.64841699 169.41278882 237.1718525 170.51305199 238.6953125 171.61328125 C239.796875 172.40885417 240.8984375 173.20442708 242 174 C188.37273054 217.31710283 120.87967823 239.39983283 53.71484375 249.6171875 C52.89807663 249.74288116 52.08130951 249.86857483 51.23979187 249.99807739 C40.67702411 251.57129707 30.22622882 252.1774411 19.55078125 252.2734375 C18.27523376 252.28582962 16.99968628 252.29822174 15.68548584 252.31098938 C11.56118616 252.34590722 7.4369228 252.36290893 3.3125 252.375 C2.61140484 252.37744846 1.91030968 252.37989693 1.18796921 252.38241959 C-22.83164699 252.45454231 -46.30574629 251.20048706 -70 247 C-70.69080658 246.87847565 -71.38161316 246.75695129 -72.09335327 246.63174438 C-132.89894708 235.83731612 -189.77806296 210.67726489 -240 175 C-236.85552162 171.78017201 -233.56030502 169.12902356 -229.875 166.5625 C-228.61552157 165.67369244 -227.35642559 164.78434276 -226.09765625 163.89453125 C-225.43137207 163.4248291 -224.76508789 162.95512695 -224.07861328 162.47119141 C-220.47381282 159.91980221 -216.89268137 157.3357733 -213.3125 154.75 C-212.5582373 154.20545166 -211.80397461 153.66090332 -211.02685547 153.09985352 C-204.69149731 148.51735335 -198.39789341 143.87944239 -192.10888672 139.23364258 C-184.52397852 133.63614485 -176.88444692 128.11615144 -169.23388672 122.60888672 C-165.48640231 119.90987882 -161.74338799 117.20468506 -158 114.5 C-153.51389621 111.25868547 -149.02695169 108.01858046 -144.53515625 104.78515625 C-136.82537027 99.23195376 -129.14242369 93.64562795 -121.5 88 C-111.64592179 80.72057378 -101.71425666 73.55169676 -91.77050781 66.39550781 C-83.31406964 60.3076125 -74.88111091 54.19131259 -66.5 48 C-58.12051542 41.80988881 -49.68892637 35.69525691 -41.23388672 29.60888672 C-37.48640208 26.90987866 -33.74347298 24.20456778 -30 21.5 C-28.51953969 20.4309779 -27.03907091 19.36196752 -25.55859375 18.29296875 C-22.36219386 15.98457371 -19.16710213 13.67437949 -15.97265625 11.36328125 C-15.15087891 10.76902344 -14.32910156 10.17476562 -13.48242188 9.5625 C-11.90397195 8.42102209 -10.32583215 7.27911518 -8.74804688 6.13671875 C-8.03841797 5.62367187 -7.32878906 5.110625 -6.59765625 4.58203125 C-5.97383057 4.13061768 -5.35000488 3.6792041 -4.70727539 3.21411133 C-3.15890613 2.11300446 -1.58087009 1.05391339 0 0 Z " fill="#3C3B6E" transform="translate(1023,1181)"/>
<path d="M0 0 C6.12446264 4.00435207 12.07065362 8.19092946 17.9375 12.5625 C24.26229504 17.25011364 30.60891455 21.9031636 37 26.5 C43.28164428 31.02035165 49.52659077 35.58731822 55.75 40.1875 C62.26859792 45.00405241 68.82448479 49.76023076 75.4296875 54.45703125 C86.66515843 62.44845775 97.80144428 70.57422395 108.89111328 78.76635742 C117.2143588 84.90873208 125.60399195 90.95766919 134 97 C144.00550398 104.20063208 153.97688478 111.44250786 163.89208984 118.76708984 C171.4766884 124.36432174 179.1158833 129.88408627 186.76611328 135.39111328 C191.26309 138.62991947 195.75413826 141.87694436 200.24584961 145.12304688 C204.01750442 147.84818123 207.79148212 150.56997873 211.5703125 153.28515625 C221.47099118 160.4055653 231.27250758 167.64474347 241 175 C239.1271299 182.08678459 237.0746428 189.07758831 234.76953125 196.03515625 C234.46265884 196.96967117 234.15578644 197.9041861 233.83961487 198.86701965 C233.17865843 200.87954151 232.51657295 202.89169287 231.85345459 204.90350342 C230.04021699 210.40615591 228.23657086 215.91194721 226.43359375 221.41796875 C226.06151794 222.5540155 225.68944214 223.69006226 225.30609131 224.86053467 C221.60421525 236.18023948 217.98704855 247.52638954 214.375 258.875 C207.08422417 281.77215965 199.59589077 304.60312783 192.07030678 327.42395306 C191.14524043 330.2295715 190.22101397 333.03546635 189.29681778 335.84137154 C188.66520737 337.75745693 188.03208192 339.6730427 187.39889526 341.58860779 C185.14413462 348.43152245 182.97001766 355.29318182 180.86590576 362.18388367 C179.88366607 365.37834357 178.84932696 368.5519955 177.78125 371.71875 C177.40613281 372.83636719 177.03101563 373.95398437 176.64453125 375.10546875 C175.88151042 377.36848958 175.11848958 379.63151042 174.35546875 381.89453125 C172.5038613 387.41117612 170.69648712 392.93350662 169 398.5 C166.60732987 406.35080081 163.97747244 414.11800837 161.35546875 421.89453125 C159.09866067 428.61842335 156.94264118 435.36350159 154.875 442.14794922 C153.88109111 445.38758194 152.83314944 448.60173559 151.75 451.8125 C151.41484375 452.80894531 151.0796875 453.80539062 150.734375 454.83203125 C150.49203125 455.54746094 150.2496875 456.26289062 150 457 C138.52118196 457 121.11148803 436.29010976 112.84765625 428.62890625 C110.17359994 426.16026441 107.46840086 423.73208428 104.75 421.3125 C98.37916281 415.5838432 92.41319393 409.61023265 86.83203125 403.109375 C84.84688413 400.82370454 82.7996017 398.60298622 80.75 396.375 C75.16688108 390.17048842 70.05233875 383.63638427 65 377 C64.45150391 376.28134766 63.90300781 375.56269531 63.33789062 374.82226562 C54.56285979 363.27095385 46.47321974 351.43292413 39 339 C38.51321777 338.19401367 38.02643555 337.38802734 37.52490234 336.55761719 C24.46326563 314.77244254 13.66390146 291.86889158 5 268 C4.61328125 266.93861816 4.2265625 265.87723633 3.828125 264.78369141 C-3.07106026 245.70733217 -8.49048758 226.85404702 -12.09765625 206.8984375 C-12.82656715 202.86744454 -13.67915098 198.87524373 -14.5625 194.875 C-18.63343947 174.14683559 -19.49758843 153.22550019 -19.39111328 132.1574707 C-19.37403952 128.74851205 -19.38419585 125.34025766 -19.40144157 121.93132305 C-19.58074928 79.98338573 -12.63621759 39.89144893 0 0 Z " fill="#3C3B6E" transform="translate(634,897)"/>
<path d="M0 0 C10.76106675 20.28437222 13.9564523 46.37726499 16.72460938 68.86999512 C17.044293 71.34258361 17.40234423 73.80867246 17.7578125 76.27636719 C20.04220426 92.76640446 20.56059697 109.13719095 20.50653458 125.75911713 C20.49989821 127.907961 20.49808677 130.05677437 20.49667358 132.20562744 C20.46488041 152.55712085 19.65898128 172.41149305 15.70117188 192.42578125 C14.98894301 196.05636293 14.36752753 199.69337675 13.765625 203.34375 C11.43325924 217.20504624 8.26002063 230.6103628 4 244 C3.67515625 245.03592285 3.3503125 246.0718457 3.015625 247.13916016 C-14.10093176 301.38682954 -40.98383604 352.43309818 -79 395 C-79.76699219 395.86625 -80.53398438 396.7325 -81.32421875 397.625 C-83.53273523 400.09917286 -85.76132929 402.55308085 -88 405 C-88.47469727 405.51981445 -88.94939453 406.03962891 -89.43847656 406.57519531 C-96.94229485 414.7841343 -104.41384132 422.86946194 -112.85546875 430.1328125 C-115.15107429 432.13153645 -117.384796 434.18945229 -119.625 436.25 C-128.49439764 444.2447575 -137.91800052 451.59646756 -148 458 C-150.80659789 451.21458316 -153.28355393 444.38105167 -155.5390625 437.39453125 C-155.86174103 436.40411331 -156.18441956 435.41369537 -156.51687622 434.39326477 C-157.55610741 431.20070355 -158.59058447 428.0066244 -159.625 424.8125 C-160.3424901 422.60586488 -161.06026531 420.39932245 -161.77832031 418.19287109 C-164.91197494 408.5567501 -168.0314867 398.91610539 -171.1328125 389.26953125 C-171.47749069 388.19802574 -171.47749069 388.19802574 -171.82913208 387.10487366 C-172.85792147 383.90542461 -173.88386595 380.7051477 -174.90478516 377.50317383 C-176.84790242 371.43697442 -178.91579821 365.44219786 -181.12011719 359.46630859 C-182.32308411 356.09439631 -183.29090826 352.69986731 -184.25 349.25 C-186.50678226 341.32214233 -189.1751531 333.56289346 -191.96972656 325.80957031 C-193.88356079 320.43886094 -195.59511053 315.03794525 -197.16796875 309.55859375 C-200.47153057 298.1063608 -204.27334344 286.81414975 -208.01245117 275.49850464 C-210.24092633 268.75403182 -212.45893822 262.00611611 -214.67578125 255.2578125 C-214.8996262 254.57659018 -215.12347115 253.89536785 -215.35409927 253.19350243 C-220.65008159 237.07041937 -225.82580948 220.90941492 -230.97387695 204.73852539 C-231.28347855 203.76703049 -231.59308014 202.79553558 -231.9120636 201.79460144 C-232.49958054 199.94824051 -233.08519044 198.10127136 -233.66862488 196.25361633 C-234.85171742 192.51990721 -236.04971225 188.80192598 -237.390625 185.12158203 C-237.77734375 184.05149902 -238.1640625 182.98141602 -238.5625 181.87890625 C-239.05943359 180.57481812 -239.05943359 180.57481812 -239.56640625 179.24438477 C-240 177 -240 177 -239.29272461 174.8527832 C-237.92297431 172.88960379 -236.73019251 171.8127283 -234.75390625 170.4765625 C-234.09140869 170.02031494 -233.42891113 169.56406738 -232.74633789 169.09399414 C-231.66533813 168.36684204 -231.66533813 168.36684204 -230.5625 167.625 C-229.00912487 166.55525882 -227.45709008 165.48356928 -225.90625 164.41015625 C-225.09800781 163.85215332 -224.28976562 163.29415039 -223.45703125 162.71923828 C-219.43793166 159.90698676 -215.50118163 156.98581016 -211.5625 154.0625 C-203.16565586 147.84644356 -194.71276214 141.71241512 -186.23388672 135.60888672 C-182.48640231 132.90987882 -178.74338799 130.20468506 -175 127.5 C-170.51389621 124.25868547 -166.02695169 121.01858046 -161.53515625 117.78515625 C-153.82537027 112.23195376 -146.14242369 106.64562795 -138.5 101 C-128.64592179 93.72057378 -118.71425666 86.55169676 -108.77050781 79.39550781 C-100.31406964 73.3076125 -91.88111091 67.19131259 -83.5 61 C-75.12051542 54.80988881 -66.68892637 48.69525691 -58.23388672 42.60888672 C-54.48640231 39.90987882 -50.74338799 37.20468506 -47 34.5 C-42.51389621 31.25868547 -38.02695169 28.01858046 -33.53515625 24.78515625 C-25.47382169 18.97895563 -17.43860522 13.13900051 -9.4375 7.25 C-8.60935791 6.64099854 -7.78121582 6.03199707 -6.92797852 5.40454102 C-6.16670654 4.84307373 -5.40543457 4.28160645 -4.62109375 3.703125 C-3.9448999 3.20458008 -3.26870605 2.70603516 -2.57202148 2.19238281 C-1.04473663 1.090088 -1.04473663 1.090088 0 0 Z " fill="#3C3B6E" transform="translate(1413,897)"/>
<path d="M0 0 C-1.36860325 8.57197653 -4.06480159 16.63022411 -6.875 24.8125 C-7.75011119 27.38059236 -8.62174703 29.94985241 -9.4921875 32.51953125 C-9.70675598 33.15146393 -9.92132446 33.78339661 -10.14239502 34.43447876 C-11.86244785 39.52646192 -13.44604257 44.65358174 -15.00830078 49.7956543 C-17.09440273 56.53619791 -19.39030919 63.20880097 -21.64453125 69.89453125 C-22.01964844 71.01214844 -22.39476562 72.12976563 -22.78125 73.28125 C-23.11189453 74.26158203 -23.44253906 75.24191406 -23.78320312 76.25195312 C-24.83900023 79.50407937 -25.85011988 82.76441957 -26.84863281 86.03442383 C-29.01819154 93.11084146 -31.31775047 100.14062458 -33.640625 107.16796875 C-34.08407886 108.51326291 -34.52736763 109.85861149 -34.97050476 111.20401001 C-35.90879741 114.05247712 -36.84760199 116.90077462 -37.78683472 119.74893188 C-44.92806028 141.40806938 -52.02786934 163.07815269 -58.9375 184.8125 C-65.39271713 205.10890462 -71.99867575 225.3545377 -78.64558792 245.58880234 C-79.43472883 247.9915624 -80.22327186 250.39451798 -81.01168823 252.79751587 C-82.25140619 256.57537782 -83.49291719 260.3526457 -84.73594666 264.12941933 C-85.19832653 265.53487751 -85.66022605 266.94049382 -86.12162781 268.34627342 C-86.75593885 270.27821619 -87.39243688 272.2094405 -88.02905273 274.140625 C-88.38716537 275.22891602 -88.74527802 276.31720703 -89.11424255 277.43847656 C-90 280 -90 280 -91 282 C-189.01 282 -287.02 282 -388 282 C-386.96904001 274.78328006 -384.97816839 269.08960255 -382.3125 262.375 C-381.82918213 261.15312988 -381.34586426 259.93125977 -380.84790039 258.67236328 C-358.00039913 201.65315004 -322.00790453 146.09569129 -275.109375 105.83203125 C-272.82370454 103.84688413 -270.60298622 101.7996017 -268.375 99.75 C-262.17048842 94.16688108 -255.63638427 89.05233875 -249 84 C-248.28134766 83.45150391 -247.56269531 82.90300781 -246.82226562 82.33789062 C-223.30584365 64.47348423 -198.13702091 49.39770874 -171.30126953 37.07128906 C-169.31760508 36.1478518 -167.35685572 35.19406541 -165.40234375 34.2109375 C-144.40875722 23.8491907 -121.61199777 16.80256076 -99 11 C-97.58715768 10.62139926 -96.17438891 10.24252386 -94.76171875 9.86328125 C-63.71309892 1.80217255 -31.93005193 -0.41864919 0 0 Z " fill="#3C3B6D" transform="translate(1023,615)"/>
<path d="M0 0 C21.13158329 -0.54495255 41.0830322 0.6270544 62 4 C64.1573594 4.32809242 66.31490483 4.6549645 68.47265625 4.98046875 C74.33497692 5.88536579 80.17164054 6.89779177 86 8 C87.23049072 8.23227295 87.23049072 8.23227295 88.48583984 8.46923828 C166.5901278 23.8295894 248.47039529 69.9825003 300.375 130.8125 C302.94748973 133.80230473 305.57990115 136.72209893 308.25 139.625 C313.83311892 145.82951158 318.94766125 152.36361573 324 159 C324.54849609 159.71865234 325.09699219 160.43730469 325.66210938 161.17773438 C350.26540314 193.56512108 369.37394476 229.09288364 384 267 C384.39719238 268.02432129 384.79438477 269.04864258 385.20361328 270.10400391 C385.57083496 271.07644043 385.93805664 272.04887695 386.31640625 273.05078125 C386.6419751 273.90969971 386.96754395 274.76861816 387.30297852 275.65356445 C388 278 388 278 388 282 C289.99 282 191.98 282 91 282 C76.29063157 239.0033846 76.29063157 239.0033846 71.49731445 223.77001953 C64.67951782 202.12022369 57.60690803 180.55602984 50.5 159 C43.29612557 137.14962667 36.1727359 115.27833642 29.20687866 93.35061646 C25.01305409 80.15697954 20.67917175 67.03119806 16.0949707 53.96801758 C13.80656532 47.42809214 11.69964378 40.87980582 9.84033203 34.20581055 C7.78083741 26.93511475 5.18636867 19.84406415 2.58935547 12.75048828 C2.25436035 11.8170459 1.91936523 10.88360352 1.57421875 9.921875 C1.27088623 9.09268555 0.96755371 8.26349609 0.6550293 7.40917969 C-0.04384376 4.83874386 -0.11897988 2.65121413 0 0 Z " fill="#3C3B6D" transform="translate(1025,615)"/>
</svg>
